# xmcd
#
# Track frame offsets:
#	150
#	21512
#	42707
#	61192
#	81587
#	105432
#	135027
#	152670
#	177945
#	205182
#	220740
#	243030
#	261810
#
# Disc length: 3935 seconds
#
# Revision: 0
# Processed by: cddbd v1.5PL3 Copyright (c) Steve Scherf et al.
# Submitted via: audiograbber 1.81.03
#
DISCID=ab0f5d0d
DTITLE=Blues Traveler - Straight On Till Morning
DYEAR=1997
DGENRE=Blues
TTITLE0=Carolina Blues
TTITLE1=Felicia
TTITLE2=Justify The Thrill
TTITLE3=Canadian Rose
TTITLE4=Business As Usual
TTITLE5=Yours
TTITLE6=Psycho Joe
TTITLE7=Great Big World
TTITLE8=Battle Of Someone
TTITLE9=Most Precarious
TTITLE10=The Gunfighter
TTITLE11=Last Night I Dreamed
TTITLE12=Make My Way
EXTD=
EXTT0=
EXTT1=
EXTT2=
EXTT3=
EXTT4=
EXTT5=
EXTT6=
EXTT7=
EXTT8=
EXTT9=
EXTT10=
EXTT11=
EXTT12=
PLAYORDER=
